<svg width="59" height="59" viewBox="0 0 59 59" fill="none" xmlns="http://www.w3.org/2000/svg">
<g clip-path="url(#clip0_108_3)">
<rect width="59" height="59" rx="29.5" fill="#151515"/>
<path d="M26.3409 34.8182V38.2273H12.2273V34.8182H26.3409ZM16.4545 61V31.2045C16.4545 29.7045 16.8068 28.4545 17.5114 27.4545C18.2159 26.4545 19.1307 25.7045 20.2557 25.2045C21.3807 24.7045 22.5682 24.4545 23.8182 24.4545C24.8068 24.4545 25.6136 24.5341 26.2386 24.6932C26.8636 24.8523 27.3295 25 27.6364 25.1364L26.4773 28.6136C26.2727 28.5455 25.9886 28.4602 25.625 28.358C25.2727 28.2557 24.8068 28.2045 24.2273 28.2045C22.8977 28.2045 21.9375 28.5398 21.3466 29.2102C20.767 29.8807 20.4773 30.8636 20.4773 32.1591V61H16.4545Z" fill="white"/>
<path d="M46.2273 16.6818L42.6136 17.7045C42.3864 17.1023 42.0511 16.517 41.608 15.9489C41.1761 15.3693 40.5852 14.892 39.8352 14.517C39.0852 14.142 38.125 13.9545 36.9545 13.9545C35.3523 13.9545 34.017 14.3239 32.9489 15.0625C31.892 15.7898 31.3636 16.7159 31.3636 17.8409C31.3636 18.8409 31.7273 19.6307 32.4545 20.2102C33.1818 20.7898 34.3182 21.2727 35.8636 21.6591L39.75 22.6136C42.0909 23.1818 43.8352 24.0511 44.983 25.2216C46.1307 26.3807 46.7045 27.875 46.7045 29.7045C46.7045 31.2045 46.2727 32.5455 45.4091 33.7273C44.5568 34.9091 43.3636 35.8409 41.8295 36.5227C40.2955 37.2045 38.5114 37.5455 36.4773 37.5455C33.8068 37.5455 31.5966 36.9659 29.8466 35.8068C28.0966 34.6477 26.9886 32.9545 26.5227 30.7273L30.3409 29.7727C30.7045 31.1818 31.392 32.2386 32.4034 32.9432C33.4261 33.6477 34.7614 34 36.4091 34C38.2841 34 39.7727 33.6023 40.875 32.8068C41.9886 32 42.5455 31.0341 42.5455 29.9091C42.5455 29 42.2273 28.2386 41.5909 27.625C40.9545 27 39.9773 26.5341 38.6591 26.2273L34.2955 25.2045C31.8977 24.6364 30.1364 23.7557 29.0114 22.5625C27.8977 21.358 27.3409 19.8523 27.3409 18.0455C27.3409 16.5682 27.7557 15.2614 28.5852 14.125C29.4261 12.9886 30.5682 12.0966 32.0114 11.4489C33.4659 10.8011 35.1136 10.4773 36.9545 10.4773C39.5455 10.4773 41.5795 11.0455 43.0568 12.1818C44.5455 13.3182 45.6023 14.8182 46.2273 16.6818Z" fill="#666666"/>
</g>
<defs>
<clipPath id="clip0_108_3">
<rect width="59" height="59" rx="29.5" fill="white"/>
</clipPath>
</defs>
</svg>
